<svg width="163" height="88" xmlns="http://www.w3.org/2000/svg">

 <g>
  <title>background</title>
  <rect fill="none" id="canvas_background" height="90" width="165" y="-1" x="-1"/>
 </g>
 <g>
  <title>Layer 1</title>
  <path stroke="null" fill="#4a7c59" transform="rotate(-90 81.50000000000001,44.00000000000001) " id="svg_1" d="m123.595441,30.908705c-5.058777,-6.904547 -13.945818,-11.484792 -24.063373,-11.484792c-2.734474,0 -5.400587,0.341809 -7.929975,0.957066c0.478533,-1.025428 0.341809,-2.255941 -0.478533,-3.076283c-0.957066,-1.025428 -2.461027,-1.09379 -3.554816,-0.341809c0.888704,-1.025428 0.888704,-2.59775 -0.068362,-3.623178c-1.025428,-1.09379 -2.802836,-1.162152 -3.896626,-0.136724c-1.09379,1.025428 -1.162152,2.802836 -0.136724,3.896626c0.957066,1.025428 2.461027,1.09379 3.554816,0.341809c-0.546895,0.615257 -0.75198,1.435599 -0.615257,2.187579c-0.136724,-0.410171 -0.341809,-0.75198 -0.615257,-1.09379c-1.025428,-1.09379 -2.802836,-1.162152 -3.896626,-0.136724c-1.09379,1.025428 -1.162152,2.802836 -0.136724,3.896626c0.75198,0.820342 1.84577,1.025428 2.802836,0.683619c-2.050856,1.09379 -3.964988,2.392665 -5.605672,3.896626c0.136724,-0.478533 0.273447,-0.957066 0.410171,-1.435599c4.101711,-15.039608 9.433936,-26.661123 9.502298,-26.797847c0.068362,-0.205086 0.136724,-0.478533 0.205086,-0.683619c1.09379,0.205086 2.187579,0.273447 3.281369,0.273447c4.990415,0 10.254278,-1.777408 14.766161,-5.400587c5.947481,-4.78533 9.023765,-11.689877 8.750317,-18.184253c0,-0.615257 -0.478533,-1.162152 -1.025428,-1.298875c-1.572323,-0.410171 -3.144645,-0.615257 -4.853692,-0.615257c-4.990415,0 -10.254278,1.777408 -14.766161,5.400587c-3.418093,2.734474 -5.810758,6.152567 -7.246357,9.844107c-0.273447,-2.93956 -1.230513,-6.015843 -2.93956,-8.818679c-3.349731,-5.674034 -8.818679,-9.160489 -14.355989,-9.844107c-0.068362,0 -0.136724,0 -0.136724,0c-0.546895,0 -1.09379,0.341809 -1.298875,0.888704c-2.050856,5.195501 -1.640685,11.689877 1.709046,17.363911c3.007922,5.058777 7.72489,8.408508 12.578581,9.502298c-0.683619,1.572323 -2.461027,5.674034 -4.511882,11.279706c0.136724,-0.820342 -0.068362,-1.709046 -0.683619,-2.392665c-1.025428,-1.09379 -2.802836,-1.162152 -3.896626,-0.136724c-0.615257,0.615257 -0.888704,1.367237 -0.820342,2.187579c-0.136724,-0.341809 -0.341809,-0.683619 -0.615257,-1.025428c-1.025428,-1.09379 -2.802836,-1.162152 -3.896626,-0.136724c-0.410171,0.410171 -0.683619,0.957066 -0.820342,1.503961c-0.75198,-0.957066 -1.640685,-1.914132 -2.529389,-2.802836c-6.084205,-5.947481 -13.740733,-9.023765 -21.055451,-9.023765c-1.435599,0 -2.802836,0.136724 -4.170073,0.341809c-0.546895,0.068362 -1.025428,0.546895 -1.09379,1.09379c-1.298875,8.47687 1.84577,17.979168 9.092127,25.088801c6.084205,5.947481 13.740733,9.023765 21.055451,9.023765c0.820342,0 1.640685,-0.068362 2.392665,-0.136724c-1.298875,5.742396 -2.187579,11.211344 -2.59775,16.270121c-0.136724,-1.367237 -1.298875,-2.392665 -2.666112,-2.392665c-1.503961,0 -2.734474,1.230513 -2.734474,2.734474c0,1.367237 1.025428,2.529389 2.324303,2.666112c-1.435599,0.068362 -2.59775,1.230513 -2.59775,2.734474c0,1.503961 1.230513,2.734474 2.734474,2.734474c1.230513,0 2.255941,-0.820342 2.59775,-1.914132c-0.068362,1.982494 0,3.964988 0.068362,5.879119c-1.777408,-2.461027 -4.101711,-4.648606 -6.904547,-6.357652c-0.410171,-0.273447 -0.820342,-0.478533 -1.230513,-0.683619c0.273447,0.068362 0.546895,0.136724 0.888704,0.136724c1.503961,0 2.734474,-1.230513 2.734474,-2.734474c0,-1.503961 -1.230513,-2.734474 -2.734474,-2.734474c-1.503961,0 -2.734474,1.230513 -2.734474,2.734474c0,0.888704 0.410171,1.709046 1.09379,2.187579c-3.486455,-1.777408 -7.246357,-2.666112 -10.801173,-2.666112c-2.666112,0 -5.195501,0.478533 -7.519804,1.367237c-0.546895,0.205086 -0.957066,0.820342 -0.888704,1.435599c0.546895,6.562738 4.511882,13.125476 11.142982,17.227187c4.101711,2.529389 8.545232,3.759902 12.852029,3.759902c2.119217,0 4.170073,-0.273447 6.152567,-0.888704c0.136724,0.546895 0.273447,1.09379 0.478533,1.640685c9.57066,30.899558 28.37017,42.726159 29.190512,43.204692c0.478533,0.273447 0.957066,0.410171 1.435599,0.410171c0.888704,0 1.777408,-0.478533 2.324303,-1.298875c0.820342,-1.298875 0.410171,-2.93956 -0.888704,-3.759902c-0.068362,0 -4.511882,-2.871198 -10.049193,-9.160489c-4.922054,-5.605672 -11.553153,-15.176332 -16.20176,-29.327236c2.59775,1.025428 5.400587,1.572323 8.340146,1.572323c2.93956,0 6.084205,-0.546895 9.092127,-1.709046c7.246357,-2.802836 12.305134,-8.545232 14.082542,-14.902884c0.136724,-0.615257 -0.068362,-1.230513 -0.615257,-1.572323c-3.281369,-2.050856 -7.246357,-3.144645 -11.41643,-3.144645c-2.93956,0 -6.084205,0.546895 -9.092127,1.709046c-1.09379,0.410171 -2.119217,0.888704 -3.076283,1.435599c0.205086,-0.888704 0,-1.84577 -0.683619,-2.59775c-1.025428,-1.09379 -2.802836,-1.162152 -3.896626,-0.136724c-0.136724,0.068362 -0.205086,0.205086 -0.273447,0.341809c0.341809,-0.957066 0.205086,-2.050856 -0.546895,-2.871198c-1.025428,-1.09379 -2.802836,-1.162152 -3.896626,-0.136724c-1.09379,1.025428 -1.162152,2.802836 -0.136724,3.896626c0.478533,0.478533 1.09379,0.75198 1.709046,0.820342c-0.546895,0.068362 -1.162152,0.273447 -1.572323,0.75198c-0.546895,0.478533 -0.820342,1.162152 -0.820342,1.84577c-0.410171,-7.656528 0.478533,-16.406845 2.529389,-26.114228c5.195501,5.674034 13.2622,9.365574 22.285965,9.365574c10.117554,0 19.004596,-4.580244 24.063373,-11.484792c0.410171,-0.136724 0.410171,-0.820342 0.068362,-1.298875zm-18.04753,-40.128409c-3.828264,3.076283 -8.47687,4.78533 -13.057114,4.78533c-0.75198,0 -1.503961,-0.068362 -2.187579,-0.136724l4.78533,-3.828264l4.306797,1.367237c0.068362,0 0.136724,0 0.205086,0c0.273447,0 0.546895,-0.205086 0.683619,-0.478533c0.136724,-0.341809 -0.068362,-0.75198 -0.410171,-0.888704l-3.418093,-1.09379l3.007922,-2.392665l4.306797,1.435599c0.068362,0 0.136724,0 0.205086,0c0.273447,0 0.546895,-0.205086 0.615257,-0.478533c0.136724,-0.341809 -0.068362,-0.75198 -0.410171,-0.888704l-3.418093,-1.162152l2.93956,-2.392665l4.375159,1.367237c0.068362,0 0.136724,0 0.205086,0c0.273447,0 0.546895,-0.205086 0.683619,-0.478533c0.136724,-0.341809 -0.068362,-0.75198 -0.410171,-0.888704l-3.486455,-1.09379l8.408508,-6.767824c-0.683619,5.332225 -3.486455,10.391002 -7.929975,14.01418zm-8.408508,-10.391002c3.828264,-3.076283 8.47687,-4.78533 13.057114,-4.78533c0.820342,0 1.572323,0.068362 2.392665,0.205086l-8.47687,6.836185l-0.341809,-3.623178c0,-0.341809 -0.341809,-0.683619 -0.75198,-0.615257c-0.410171,0 -0.683619,0.341809 -0.615257,0.75198l0.410171,4.511882l-3.007922,2.461027l-0.273447,-3.69154c0,-0.410171 -0.341809,-0.683619 -0.75198,-0.615257c-0.410171,0 -0.683619,0.341809 -0.615257,0.75198l0.341809,4.580244l-2.93956,2.392665l-0.341809,-3.69154c0,-0.341809 -0.341809,-0.683619 -0.75198,-0.615257c-0.410171,0 -0.683619,0.341809 -0.615257,0.75198l0.410171,4.580244l-4.78533,3.828264c0.341809,-5.263863 3.144645,-10.391002 7.656528,-14.01418zm-14.287628,0.273447c2.392665,4.101711 3.213007,8.818679 2.187579,12.988752l-3.281369,-5.53731l1.572323,-3.349731c0.136724,-0.341809 0,-0.75198 -0.341809,-0.888704c-0.341809,-0.136724 -0.75198,0 -0.888704,0.341809l-1.230513,2.529389l-1.367237,-2.324303l1.572323,-3.281369c0.136724,-0.341809 0,-0.75198 -0.341809,-0.888704c-0.341809,-0.136724 -0.75198,0 -0.888704,0.341809l-1.230513,2.461027l-1.367237,-2.324303l1.572323,-3.281369c0.136724,-0.341809 0,-0.75198 -0.341809,-0.888704c-0.341809,-0.136724 -0.75198,0 -0.888704,0.341809l-1.162152,2.461027l-3.896626,-6.6311c4.238435,0.957066 7.929975,3.828264 10.32264,7.929975zm-9.365574,5.53731c-2.461027,-4.170073 -3.213007,-8.955403 -2.119217,-13.193838l3.964988,6.767824l-2.529389,-0.136724c-0.341809,0 -0.683619,0.273447 -0.683619,0.683619c0,0.410171 0.273447,0.683619 0.683619,0.683619l3.418093,0.136724l1.367237,2.324303l-2.461027,-0.136724c-0.341809,0 -0.683619,0.273447 -0.75198,0.615257c0,0.410171 0.273447,0.683619 0.615257,0.75198l3.418093,0.205086l1.298875,2.255941l-2.461027,-0.136724c-0.341809,0 -0.683619,0.273447 -0.683619,0.683619s0.273447,0.683619 0.683619,0.683619l3.349731,0.136724l3.418093,5.810758c-4.306797,-1.025428 -8.066699,-3.964988 -10.527726,-8.135061zm12.305134,36.231783c0.683619,-0.615257 0.957066,-1.572323 0.820342,-2.392665c0.136724,0.410171 0.341809,0.75198 0.615257,1.09379c0.205086,0.205086 0.478533,0.410171 0.683619,0.546895c-0.820342,0.341809 -1.640685,0.683619 -2.392665,1.025428c0.068362,-0.136724 0.136724,-0.205086 0.273447,-0.273447zm13.740733,-0.273447c8.203423,0 15.791588,3.281369 20.64528,8.887041l-10.459364,0l2.050856,-3.007922c0.205086,-0.341809 0.136724,-0.75198 -0.205086,-0.957066c-0.341809,-0.205086 -0.75198,-0.136724 -0.957066,0.205086l-2.529389,3.828264l-3.759902,0l1.982494,-3.076283c0.205086,-0.341809 0.136724,-0.75198 -0.205086,-0.957066c-0.341809,-0.205086 -0.75198,-0.136724 -0.957066,0.205086l-2.461027,3.759902l-3.896626,0l2.050856,-3.007922c0.205086,-0.341809 0.136724,-0.75198 -0.205086,-0.957066c-0.341809,-0.205086 -0.75198,-0.136724 -0.957066,0.205086l-2.529389,3.828264l-3.896626,0l2.050856,-3.007922c0.205086,-0.341809 0.136724,-0.75198 -0.205086,-0.957066c-0.341809,-0.205086 -0.75198,-0.136724 -0.957066,0.205086l-2.59775,3.828264l-3.759902,0l2.050856,-3.007922c0.205086,-0.341809 0.136724,-0.75198 -0.205086,-0.957066c-0.341809,-0.205086 -0.75198,-0.136724 -0.957066,0.205086l-2.529389,3.828264l-7.314718,0c4.922054,-5.810758 12.510219,-9.092127 20.713642,-9.092127zm-21.123813,-12.236772c0.205086,-0.205086 0.410171,-0.478533 0.546895,-0.75198c-0.478533,1.367237 -0.957066,2.802836 -1.503961,4.306797c0.136724,-0.820342 -0.068362,-1.640685 -0.683619,-2.324303c-0.205086,-0.273447 -0.478533,-0.410171 -0.820342,-0.546895c0.820342,0.136724 1.777408,-0.068362 2.461027,-0.683619zm-3.896626,-0.136724c0.205086,0.273447 0.478533,0.410171 0.820342,0.546895c-0.683619,-0.136724 -1.367237,-0.068362 -1.982494,0.341809c0.478533,-0.546895 0.615257,-1.230513 0.615257,-1.914132c0.068362,0.410171 0.273447,0.75198 0.546895,1.025428zm-1.84577,1.572323c-0.820342,1.025428 -0.820342,2.59775 0.136724,3.554816c1.025428,1.09379 2.802836,1.162152 3.896626,0.136724c0.205086,-0.205086 0.410171,-0.478533 0.546895,-0.683619c-0.75198,2.324303 -1.572323,4.853692 -2.324303,7.519804c-0.683619,-3.486455 -2.050856,-6.972909 -4.033349,-10.185916c0.546895,0.068362 1.162152,0 1.777408,-0.341809zm-27.754913,-11.963325c6.836185,0 13.809095,3.007922 19.141319,8.203423c5.947481,5.810758 9.023765,13.535647 8.47687,20.987089l-5.263863,-5.195501l0.888704,-4.580244c0.068362,-0.341809 -0.205086,-0.75198 -0.546895,-0.820342c-0.341809,-0.068362 -0.75198,0.205086 -0.820342,0.546895l-0.683619,3.69154l-2.734474,-2.734474l0.888704,-4.511882c0.068362,-0.341809 -0.136724,-0.75198 -0.546895,-0.820342c-0.341809,-0.068362 -0.75198,0.136724 -0.820342,0.546895l-0.75198,3.623178l-2.666112,-2.666112l0.888704,-4.511882c0.068362,-0.341809 -0.205086,-0.75198 -0.546895,-0.820342c-0.341809,-0.068362 -0.75198,0.205086 -0.820342,0.546895l-0.683619,3.623178l-2.666112,-2.59775l0.820342,-4.580244c0.068362,-0.341809 -0.205086,-0.75198 -0.546895,-0.820342c-0.341809,-0.068362 -0.75198,0.205086 -0.820342,0.546895l-0.683619,3.623178l-2.734474,-2.734474l0.820342,-4.511882c0.068362,-0.341809 -0.205086,-0.75198 -0.546895,-0.820342c-0.341809,-0.068362 -0.75198,0.205086 -0.820342,0.546895l-0.683619,3.554816l-7.314718,-7.177995c0.546895,-0.068362 1.162152,-0.136724 1.777408,-0.136724zm5.742396,21.875793c-5.810758,-5.742396 -8.955403,-13.398923 -8.47687,-20.713642l7.38308,7.246357l-3.554816,0.75198c-0.341809,0.068362 -0.615257,0.410171 -0.546895,0.820342c0.068362,0.341809 0.341809,0.546895 0.683619,0.546895c0.068362,0 0.068362,0 0.136724,0l4.443521,-0.957066l2.666112,2.666112l-3.554816,0.75198c-0.341809,0.068362 -0.615257,0.478533 -0.546895,0.820342c0.068362,0.341809 0.341809,0.546895 0.683619,0.546895c0.068362,0 0.068362,0 0.136724,0l4.375159,-0.957066l2.734474,2.734474l-3.554816,0.75198c-0.341809,0.068362 -0.615257,0.410171 -0.546895,0.820342c0.068362,0.341809 0.341809,0.546895 0.683619,0.546895c0.068362,0 0.068362,0 0.136724,0l4.443521,-0.957066l2.734474,2.734474l-3.554816,0.683619c-0.341809,0.068362 -0.615257,0.410171 -0.546895,0.820342c0.068362,0.341809 0.341809,0.546895 0.683619,0.546895c0.068362,0 0.068362,0 0.136724,0l4.443521,-0.888704l2.666112,2.666112l-3.486455,0.75198c-0.341809,0.068362 -0.615257,0.410171 -0.546895,0.820342c0.068362,0.341809 0.341809,0.546895 0.683619,0.546895c0.068362,0 0.068362,0 0.136724,0l4.375159,-0.888704l5.195501,5.127139c-0.546895,0.068362 -1.09379,0.068362 -1.640685,0.068362c-6.699462,-0.136724 -13.672371,-3.144645 -19.004596,-8.408508zm16.338483,30.21594c1.162152,-0.068362 2.119217,-0.820342 2.461027,-1.914132c-0.136724,1.298875 -0.205086,2.666112 -0.205086,3.896626c-0.273447,-1.025428 -1.162152,-1.84577 -2.255941,-1.982494zm-17.432273,1.982494c3.896626,0 7.861613,1.162152 11.41643,3.349731c4.511882,2.802836 7.72489,6.904547 9.160489,11.484792c0.068362,0.546895 0.205086,1.162152 0.273447,1.709046l-5.332225,-3.349731l-0.136724,-4.580244c0,-0.410171 -0.341809,-0.683619 -0.683619,-0.683619c-0.410171,0 -0.683619,0.341809 -0.683619,0.683619l0.068362,3.69154l-3.213007,-1.982494l-0.136724,-4.648606c0,-0.410171 -0.341809,-0.683619 -0.683619,-0.683619c-0.410171,0 -0.683619,0.341809 -0.683619,0.683619l0.136724,3.69154l-3.281369,-2.050856l-0.136724,-4.648606c0,-0.410171 -0.341809,-0.683619 -0.683619,-0.683619c-0.410171,0 -0.683619,0.341809 -0.683619,0.683619l0.068362,3.759902l-9.57066,-5.947481c1.503961,-0.273447 3.076283,-0.478533 4.78533,-0.478533zm4.101711,14.971246c-4.990415,-3.144645 -8.47687,-7.929975 -9.57066,-13.125476l9.365574,5.810758l-3.281369,1.435599c-0.341809,0.136724 -0.478533,0.546895 -0.341809,0.888704c0.136724,0.273447 0.341809,0.410171 0.615257,0.410171c0.068362,0 0.205086,0 0.273447,-0.068362l4.101711,-1.84577l3.213007,1.982494l-3.281369,1.503961c-0.341809,0.136724 -0.478533,0.546895 -0.341809,0.888704c0.136724,0.273447 0.341809,0.410171 0.615257,0.410171c0.068362,0 0.205086,0 0.273447,-0.068362l4.101711,-1.84577l3.281369,2.050856l-3.349731,1.503961c-0.341809,0.136724 -0.478533,0.546895 -0.341809,0.888704c0.136724,0.273447 0.341809,0.410171 0.615257,0.410171c0.068362,0 0.205086,0 0.273447,-0.068362l4.170073,-1.84577l5.400587,3.349731c-1.503961,0.410171 -3.007922,0.546895 -4.580244,0.546895c-3.759902,0.136724 -7.656528,-1.025428 -11.211344,-3.213007zm40.19677,4.238435c-2.59775,1.025428 -5.332225,1.572323 -8.066699,1.572323c-2.802836,0 -5.53731,-0.546895 -7.929975,-1.640685l5.947481,-2.392665l3.554816,2.666112c0.136724,0.068362 0.273447,0.136724 0.410171,0.136724c0.205086,0 0.410171,-0.068362 0.546895,-0.273447c0.205086,-0.273447 0.136724,-0.75198 -0.136724,-0.957066l-2.871198,-2.119217l3.418093,-1.367237l3.759902,2.734474c0.136724,0.068362 0.273447,0.136724 0.410171,0.136724c0.205086,0 0.410171,-0.068362 0.546895,-0.273447c0.205086,-0.273447 0.136724,-0.75198 -0.136724,-0.957066l-3.076283,-2.255941l3.554816,-1.435599l3.896626,2.871198c0.136724,0.068362 0.273447,0.136724 0.410171,0.136724c0.205086,0 0.410171,-0.068362 0.546895,-0.273447c0.205086,-0.273447 0.136724,-0.75198 -0.136724,-0.957066l-3.213007,-2.392665l10.391002,-4.170073c-2.050856,4.990415 -6.289291,9.023765 -11.826601,11.211344zm-4.990415,-12.715305c2.59775,-1.025428 5.332225,-1.572323 8.066699,-1.572323c2.93956,0 5.810758,0.615257 8.271784,1.777408l-10.117554,4.033349l0.75198,-3.213007c0.068362,-0.341809 -0.136724,-0.75198 -0.478533,-0.820342c-0.341809,-0.068362 -0.75198,0.136724 -0.820342,0.478533l-1.025428,4.170073l-3.623178,1.435599l0.820342,-3.418093c0.068362,-0.341809 -0.136724,-0.75198 -0.478533,-0.820342c-0.341809,-0.068362 -0.75198,0.136724 -0.820342,0.478533l-1.025428,4.306797l-3.69154,1.435599l0.888704,-3.623178c0.068362,-0.341809 -0.136724,-0.75198 -0.478533,-0.820342c-0.341809,-0.068362 -0.75198,0.136724 -0.820342,0.478533l-1.09379,4.580244l-6.220929,2.461027c1.914132,-4.922054 6.289291,-9.160489 11.894963,-11.348068zm-9.22885,-2.734474c-0.273447,0.75198 -0.205086,1.572323 0.136724,2.255941c-0.068362,-0.136724 -0.205086,-0.273447 -0.341809,-0.410171c-0.478533,-0.478533 -1.09379,-0.75198 -1.709046,-0.820342c0.546895,-0.068362 1.162152,-0.273447 1.572323,-0.75198c0.136724,-0.068362 0.205086,-0.205086 0.341809,-0.273447zm-4.170073,5.605672c1.025428,1.09379 2.802836,1.162152 3.896626,0.136724c0.888704,-0.888704 1.09379,-2.255941 0.478533,-3.281369c0.068362,0.136724 0.205086,0.273447 0.341809,0.410171c0.410171,0.478533 0.957066,0.683619 1.572323,0.820342c-2.59775,1.982494 -4.716968,4.443521 -6.152567,7.177995c-0.341809,-2.050856 -0.615257,-4.306797 -0.75198,-6.562738c0,0.410171 0.273447,0.888704 0.615257,1.298875zm24.063373,-21.533984c-8.203423,0 -15.791588,-3.281369 -20.64528,-8.887041l7.314718,0l2.529389,3.828264c0.136724,0.205086 0.341809,0.273447 0.546895,0.273447c0.136724,0 0.273447,-0.068362 0.410171,-0.136724c0.341809,-0.205086 0.410171,-0.615257 0.205086,-0.957066l-2.050856,-3.007922l3.896626,0l2.461027,3.759902c0.136724,0.205086 0.341809,0.341809 0.546895,0.341809c0.136724,0 0.273447,-0.068362 0.341809,-0.136724c0.341809,-0.205086 0.410171,-0.615257 0.205086,-0.957066l-1.982494,-3.076283l3.759902,0l2.529389,3.828264c0.136724,0.205086 0.341809,0.273447 0.546895,0.273447c0.136724,0 0.273447,-0.068362 0.410171,-0.136724c0.341809,-0.205086 0.410171,-0.615257 0.205086,-0.957066l-2.050856,-3.007922l3.759902,0l2.59775,3.828264c0.136724,0.205086 0.341809,0.273447 0.546895,0.273447c0.136724,0 0.273447,-0.068362 0.410171,-0.136724c0.341809,-0.205086 0.410171,-0.615257 0.205086,-0.957066l-2.050856,-3.007922l3.896626,0l2.529389,3.828264c0.136724,0.205086 0.341809,0.273447 0.546895,0.273447c0.136724,0 0.273447,-0.068362 0.410171,-0.136724c0.341809,-0.205086 0.410171,-0.615257 0.205086,-0.957066l-2.050856,-3.007922l10.459364,0c-4.853692,5.674034 -12.441858,8.955403 -20.64528,8.955403z"/>
 </g>
</svg>